HIERARCHY
ROOT SpineBase
{
  OFFSET 0.000000 0.000000 0.000000
  CHANNELS 6 Xposition Yposition Zposition Zrotation Xrotation Yrotation
  JOINT SpineMid
  {
    OFFSET 0.000000 29.316551 0.000000
    CHANNELS 3 Zrotation Xrotation Yrotation
    JOINT SpineShoulder
    {
      OFFSET -0.001617 21.790939 -0.662621
      CHANNELS 3 Zrotation Xrotation Yrotation
      JOINT Neck
      {
        OFFSET -0.009155 7.213749 -0.520744
        CHANNELS 3 Zrotation Xrotation Yrotation
        JOINT Head
        {
          OFFSET -2.632051 12.655260 0.364435
          CHANNELS 3 Zrotation Xrotation Yrotation
          End Site
          {
            OFFSET 0 0 0
          }
        }
      }
      JOINT ShoulderLeft
      {
        OFFSET -13.696578 -3.009336 6.863114
        CHANNELS 3 Zrotation Xrotation Yrotation
        JOINT ElbowLeft
        {
          OFFSET -1.066866 -26.541110 -1.322103
          CHANNELS 3 Zrotation Xrotation Yrotation
          JOINT WristLeft
          {
            OFFSET 1.111561 -26.279408 1.444236
            CHANNELS 3 Zrotation Xrotation Yrotation
            JOINT HandLeft
            {
              OFFSET -0.337320 -4.601745 -0.101564
              CHANNELS 3 Zrotation Xrotation Yrotation
              JOINT HandTipLeft
              {
                OFFSET 1.089132 -4.173335 -1.005594
                CHANNELS 3 Zrotation Xrotation Yrotation
                End Site
                {
                  OFFSET 0 0 0
                }
              }
              JOINT ThumbLeft
              {
                OFFSET -1.566042 -0.813862 -1.886010
                CHANNELS 3 Zrotation Xrotation Yrotation
                End Site
                {
                  OFFSET 0 0 0
                }
              }
            }
          }
        }
      }
      JOINT ShoulderRight
      {
        OFFSET 11.362857 -3.421792 -10.876525
        CHANNELS 3 Zrotation Xrotation Yrotation
        JOINT ElbowRight
        {
          OFFSET 6.187242 -21.388262 -1.689751
          CHANNELS 3 Zrotation Xrotation Yrotation
          JOINT WristRight
          {
            OFFSET -0.723156 -19.575813 -6.022124
            CHANNELS 3 Zrotation Xrotation Yrotation
            JOINT HandRight
            {
              OFFSET -1.135251 -7.463750 0.246936
              CHANNELS 3 Zrotation Xrotation Yrotation
              JOINT HandTipRight
              {
                OFFSET 0.889409 -6.743201 -0.118066
                CHANNELS 3 Zrotation Xrotation Yrotation
                End Site
                {
                  OFFSET 0 0 0
                }
              }
              JOINT ThumbRight
              {
                OFFSET 2.545394 0.847744 -1.450649
                CHANNELS 3 Zrotation Xrotation Yrotation
                End Site
                {
                  OFFSET 0 0 0
                }
              }
            }
          }
        }
      }
    }
  }
  JOINT HipLeft
  {
    OFFSET -5.180185 0.151313 0.000365
    CHANNELS 3 Zrotation Xrotation Yrotation
    JOINT KneeLeft
    {
      OFFSET 7.454181 -29.393629 8.437522
      CHANNELS 3 Zrotation Xrotation Yrotation
      JOINT AnkleLeft
      {
        OFFSET 6.827307 -31.074680 7.369682
        CHANNELS 3 Zrotation Xrotation Yrotation
        JOINT FootLeft
        {
          OFFSET -1.844353 -4.409146 -7.947523
          CHANNELS 3 Zrotation Xrotation Yrotation
          End Site
          {
            OFFSET 0 0 0
          }
        }
      }
    }
  }
  JOINT HipRight
  {
    OFFSET 4.949598 1.468887 -6.632710
    CHANNELS 3 Zrotation Xrotation Yrotation
    JOINT KneeRight
    {
      OFFSET 8.616330 -27.490914 4.883298
      CHANNELS 3 Zrotation Xrotation Yrotation
      JOINT AnkleRight
      {
        OFFSET 5.937154 -30.307781 5.589923
        CHANNELS 3 Zrotation Xrotation Yrotation
        JOINT FootRight
        {
          OFFSET -4.031579 -3.582068 -6.856312
          CHANNELS 3 Zrotation Xrotation Yrotation
          End Site
          {
            OFFSET 0 0 0
          }
        }
      }
    }
  }
}
MOTION
Frames: 12
Frame Time: 0.033333
11.248187 66.367554 331.735270 -0.000000 0.000000 33.217143 0.000000 0.000000 -33.217143 -0.000000 0.000000 0.000000 -0.000000 0.000000 0.000000 0.000000 0.000000 0.000000 -0.000000 0.000000 0.000000 -0.000000 0.000000 0.000000 -0.000000 0.000000 0.000000 -0.000000 0.000000 0.000000 0.000000 0.000000 0.000000 0.000000 0.000000 0.000000 -0.000000 0.000000 0.000000 -0.000000 0.000000 0.000000 -0.000000 0.000000 0.000000 -0.000000 0.000000 0.000000 0.000000 0.000000 0.000000 0.000000 0.000000 0.000000 0.000000 0.000000 -33.217143 -0.000000 0.000000 0.000000 -0.000000 0.000000 0.000000 0.000000 0.000000 0.000000 0.000000 0.000000 -33.217143 -0.000000 0.000000 0.000000 -0.000000 0.000000 0.000000 0.000000 0.000000 0.000000
11.256591 66.372016 331.751906 0.011492 -0.030749 33.051780 0.007139 0.032041 -33.051779 -0.000000 0.000000 0.000000 -0.000000 0.000000 0.000000 0.000000 0.000000 0.000000 -0.251813 -0.897458 0.046661 0.252575 0.897243 -0.050611 -1.939500 7.115234 -0.357896 2.176969 -10.908133 -0.405011 0.000000 0.000000 0.000000 0.000000 0.000000 0.000000 -0.000000 0.000000 0.000000 -0.000000 0.000000 0.000000 1.968805 -0.683301 0.181255 -2.879106 1.669046 0.006177 0.000000 0.000000 0.000000 0.000000 0.000000 0.000000 0.007139 0.032041 -33.051779 -0.000000 0.000000 0.000000 -2.797247 2.492510 3.868399 0.000000 0.000000 0.000000 0.007139 0.032041 -33.051779 -0.000000 0.000000 0.000000 -0.225022 0.899603 -0.570207 0.000000 0.000000 0.000000
11.263423 66.374600 331.767460 0.029805 -0.044485 32.911113 -0.000852 0.053540 -32.911101 -0.000000 0.000000 0.000000 -0.000000 0.000000 0.000000 0.000000 0.000000 0.000000 -0.440606 -1.572836 0.079169 0.442945 1.572179 -0.091294 -3.792458 13.002602 -0.438992 4.482509 -20.056167 -0.496729 0.000000 0.000000 0.000000 0.000000 0.000000 0.000000 -0.000000 0.000000 0.000000 -0.000000 0.000000 0.000000 3.348126 -1.009260 0.295040 -5.048090 2.695718 0.069676 0.000000 0.000000 0.000000 0.000000 0.000000 0.000000 -0.000852 0.053540 -32.911101 -0.000000 0.000000 0.000000 -5.172592 4.351369 7.077384 0.000000 0.000000 0.000000 -0.000852 0.053540 -32.911101 -0.000000 0.000000 0.000000 -0.474341 1.871554 -1.149592 0.000000 0.000000 0.000000
11.268683 66.375308 331.781931 0.054946 -0.041207 32.795507 -0.023869 0.064400 -32.795474 -0.000000 0.000000 0.000000 -0.000000 0.000000 0.000000 0.000000 0.000000 0.000000 -0.566426 -2.024795 0.099673 0.570302 2.023707 -0.119755 -5.523206 17.362970 -0.314419 6.843872 -26.860408 -0.284113 0.000000 0.000000 0.000000 0.000000 0.000000 0.000000 -0.531039 -0.720586 -0.170153 0.528939 0.722129 0.163480 4.180174 -1.001421 0.328961 -6.551179 3.090105 0.144190 0.000000 0.000000 0.000000 0.000000 0.000000 0.000000 -0.023869 0.064400 -32.795474 -0.000000 0.000000 0.000000 -7.068602 5.679262 9.599479 0.000000 0.000000 0.000000 -0.023869 0.064400 -32.795474 -0.000000 0.000000 0.000000 -0.742657 2.903557 -1.731521 0.000000 0.000000 0.000000
11.272370 66.374139 331.795321 0.086921 -0.020908 32.705256 -0.061844 0.064558 -32.705205 -0.000000 0.000000 0.000000 -0.000000 0.000000 0.000000 0.000000 0.000000 0.000000 -0.629309 -2.252618 0.109618 0.634106 2.251274 -0.134450 -7.093768 20.079911 -0.072258 9.126124 -31.000119 0.145999 0.000000 0.000000 0.000000 0.000000 0.000000 0.000000 -0.484133 -0.930823 -0.235399 1.192919 0.506126 0.015515 3.781824 -0.229097 0.450318 -7.413444 2.855402 0.201949 0.000000 0.000000 0.000000 0.000000 0.000000 0.000000 -0.061844 0.064558 -32.705205 -0.000000 0.000000 0.000000 -8.466116 6.571809 11.441424 0.000000 0.000000 0.000000 -0.061844 0.064558 -32.705205 -0.000000 0.000000 0.000000 -1.024957 3.983071 -2.309852 0.000000 0.000000 0.000000
11.274486 66.371092 331.807628 0.125741 0.016425 32.640577 -0.114742 0.053990 -32.640541 -0.000000 0.000000 0.000000 -0.000000 0.000000 0.000000 0.000000 0.000000 0.000000 -0.629268 -2.255984 0.109734 0.634078 2.254638 -0.134602 -8.464575 21.137852 0.200201 11.145532 -32.372803 0.627971 0.000000 0.000000 0.000000 0.000000 0.000000 0.000000 -0.327642 -1.128314 -0.304240 0.991309 0.636352 0.100403 3.627125 0.491981 0.298405 -7.642612 1.985476 0.231703 0.000000 0.000000 0.000000 0.000000 0.000000 0.000000 -0.114742 0.053990 -32.640541 -0.000000 0.000000 0.000000 -9.365616 7.102956 12.623337 0.000000 0.000000 0.000000 -0.114742 0.053990 -32.640541 -0.000000 0.000000 0.000000 -1.316645 5.097665 -2.879079 0.000000 0.000000 0.000000
11.283903 66.365426 331.819999 0.182275 0.096357 32.623433 -0.205465 0.017113 -32.623555 -0.000000 0.000000 0.000000 -0.294319 -0.955460 -0.192850 0.000000 0.000000 0.000000 -0.564157 -1.917328 0.095801 0.567679 1.916288 -0.114735 -10.399755 19.892234 0.579764 13.419728 -30.495560 0.902224 0.000000 0.000000 0.000000 0.000000 0.000000 0.000000 -0.191254 -1.333674 -0.373464 0.910388 0.526387 0.164576 3.387791 1.584915 0.132043 -7.523340 -0.142141 0.066953 0.000000 0.000000 0.000000 0.000000 0.000000 0.000000 -0.205465 0.017113 -32.623555 -0.000000 0.000000 0.000000 -9.243980 5.740879 13.072082 0.000000 0.000000 0.000000 -0.205465 0.017113 -32.623555 -0.000000 0.000000 0.000000 -2.093104 8.171368 -4.366829 0.000000 0.000000 0.000000
11.288843 66.358784 331.831311 0.247417 0.174294 32.614051 -0.302344 -0.013458 -32.614463 -0.000000 0.000000 0.000000 -0.609427 -1.369554 -0.274987 0.000000 0.000000 0.000000 -0.571897 -1.878672 0.094693 0.575310 1.877630 -0.113498 -11.634430 21.217299 0.861016 16.372507 -32.844099 1.560032 0.000000 0.000000 0.000000 0.000000 0.000000 0.000000 0.098742 -1.516207 -0.445484 0.607042 0.640250 0.248156 2.834164 3.193747 -0.168787 -7.320443 -2.204337 0.096296 0.000000 0.000000 0.000000 0.000000 0.000000 0.000000 -0.302344 -0.013458 -32.614463 -0.000000 0.000000 0.000000 -7.826827 6.112172 10.627963 0.000000 0.000000 0.000000 -0.302344 -0.013458 -32.614463 -0.130784 0.910076 0.155463 -2.674670 10.585670 -6.131950 0.000000 0.000000 0.000000
11.286063 66.348296 331.833588 0.313608 0.248761 32.629287 -0.398245 -0.040400 -32.630108 -0.000000 0.000000 0.000000 -0.918630 -1.765182 -0.355600 0.000000 0.000000 0.000000 -0.275404 -0.997693 0.051443 0.276341 0.997434 -0.056247 -12.961907 19.272069 1.058491 17.418122 -29.107940 1.587841 0.000000 0.000000 0.000000 0.000000 0.000000 0.000000 0.329977 -1.698402 -0.512702 0.480703 1.156506 0.269379 0.198141 5.085597 -0.471694 -3.187774 -4.926556 0.428617 0.000000 0.000000 0.000000 0.000000 0.000000 0.000000 -0.398245 -0.040400 -32.630108 -0.000000 0.000000 0.000000 -5.499355 0.128332 9.636400 0.000000 0.000000 0.000000 -0.398245 -0.040400 -32.630108 -0.075999 1.357834 0.253476 -2.202928 7.544209 -4.920152 0.000000 0.000000 0.000000
11.254145 66.335732 331.831035 0.342320 0.310281 32.658486 -0.455636 -0.076495 -32.659717 -0.000000 0.000000 0.000000 -1.144763 -2.078761 -0.421286 0.000000 0.000000 0.000000 -0.000000 0.000000 0.000000 -0.000000 0.000000 0.000000 -12.586181 5.617985 0.482383 18.008304 -8.623961 -0.662984 0.000000 0.000000 0.000000 0.000000 0.000000 0.000000 1.146426 -1.900061 -0.620279 -1.167558 1.887152 0.658521 -3.514998 7.074318 -0.973796 0.315873 -6.844948 1.099928 0.000000 0.000000 0.000000 0.000000 0.000000 0.000000 -0.455636 -0.076495 -32.659717 -0.000000 0.000000 0.000000 -3.750840 -4.102565 8.775834 0.000000 0.000000 0.000000 -0.455636 -0.076495 -32.659717 0.243327 1.304584 0.298183 -2.518735 7.592283 -4.956784 0.000000 0.000000 0.000000
11.220379 66.323312 331.824034 0.361662 0.352683 32.627634 -0.494748 -0.102021 -32.629187 -0.000000 0.000000 0.000000 -1.244867 -2.309245 -0.470919 0.000000 0.000000 0.000000 0.621724 1.650951 -0.106243 -0.618920 -1.652004 0.088361 -10.817779 -3.748158 0.158313 15.517960 8.934371 -1.070932 0.000000 0.000000 0.000000 0.000000 0.000000 0.000000 2.674984 -2.086877 -0.762342 -3.968153 2.391323 1.281387 -7.788794 10.111119 -1.478100 4.908025 -9.079287 2.201342 0.000000 0.000000 0.000000 0.000000 0.000000 0.000000 -0.494748 -0.102021 -32.629187 -0.000000 0.000000 0.000000 -4.113332 0.248422 7.177072 0.000000 0.000000 0.000000 -1.346535 -0.394794 -32.953640 1.190363 1.896127 0.653311 -2.897068 7.707177 -5.017441 0.000000 0.000000 0.000000
11.190544 66.305395 331.808290 0.371419 0.347845 32.593647 -0.500301 -0.092982 -32.595180 -0.000000 0.000000 0.000000 -1.266926 -2.344946 -0.478597 0.000000 0.000000 0.000000 0.623444 1.460386 -0.097667 -0.621156 -1.461360 0.081799 -8.909249 -4.388964 0.175966 11.326223 13.925106 0.717812 0.000000 0.000000 0.000000 0.000000 0.000000 0.000000 4.658142 -2.046757 -0.868105 -9.336930 3.559064 2.604221 -9.918006 10.897488 -2.473431 6.070924 -10.895184 2.451221 0.000000 0.000000 0.000000 0.000000 0.000000 0.000000 -0.500301 -0.092982 -32.595180 0.779789 -0.303405 0.120087 -5.782902 -1.811461 9.852520 0.000000 0.000000 0.000000 -1.514084 -0.404980 -32.975245 1.454555 1.879658 0.704612 -3.008596 7.838038 -5.068563 0.000000 0.000000 0.000000
